<svg xmlns="http://www.w3.org/2000/svg" viewBox="0 0 62.747 11.874" preserveAspectRatio="none" role="img" aria-label="CASIO"><path d="M53.335 8.719c-.523-.131-.654-.392-.719-.915a19 19 0 010-3.856.982.982 0 01.719-.85 26.57 26.57 0 015.1 0 .844.844 0 01.588.784 12.721 12.721 0 010 3.856.916.916 0 01-.588.784c-.394.327-4.512.327-5.1.197zm6.471-8.5a35.424 35.424 0 00-7.909 0 3.594 3.594 0 00-2.876 2.62 24.673 24.673 0 000 6.209 3.43 3.43 0 002.876 2.615 32.5 32.5 0 007.974-.065 3.417 3.417 0 002.68-2.549 24.657 24.657 0 000-6.209A3.6 3.6 0 0059.806.222zM43.4.284h3.595v11.308H43.4zm-5.752 6.994a.9.9 0 01.719.98c0 .392-.065.85-.719.915a20.961 20.961 0 01-4.052 0c-.392-.065-.85-.065-.98-.784v-.2h-3.595a2.1 2.1 0 00.065.523 2.77 2.77 0 002.418 2.876 37.326 37.326 0 008.1 0c1.83-.392 2.288-2.026 2.288-3.464 0-1.634-.588-2.745-2.026-3.2a7.539 7.539 0 00-1.7-.2c-.327 0-4.183-.131-5.033-.261-.523-.065-.654-.392-.654-.85s.065-.784.719-.915a22.214 22.214 0 014.183 0 .689.689 0 01.523.719v.261h3.595c0-.261-.065-.457-.065-.654A2.915 2.915 0 0038.493.148a41.787 41.787 0 00-7.059.065c-1.177.261-2.353.98-2.353 3.4a2.922 2.922 0 002.484 3.268c.458.065 1.765.131 1.961.131.462.072 3.861.203 4.122.269zm-14.183-.065h-3.987l1.7-4.51h.588zm.784 2.353l.784 2.026h3.856L24.052.219h-5.229l-4.771 11.373h3.856l.784-2.092 5.556.065zm-20.523-1.7c.065.654.392.784.719.85a30.693 30.693 0 004.9 0 .974.974 0 00.85-.784c0-.2.065-.523.065-.654h3.726a14.39 14.39 0 01-.065 1.5 3.237 3.237 0 01-2.68 2.876 42.659 42.659 0 01-8.17 0A3.586 3.586 0 01.195 9.039a24.148 24.148 0 010-6.144A3.51 3.51 0 013.005.281a38.535 38.535 0 018.236 0 3.394 3.394 0 012.549 2.745 12.866 12.866 0 01.065 1.373h-3.726c0-.261.065-.98-.588-1.176a40.3 40.3 0 00-4.967-.065.785.785 0 00-.784.719 16.339 16.339 0 00-.064 3.992z" fill="#00309c"></path></svg>